<?xml version="1.0" standalone="no"?> <!DOCTYPE svg PUBLIC "-//W3C//DTD SVG 1.0//EN" "http://www.w3.org/TR/2001/REC-SVG-20010904/DTD/svg10.dtd" > <svg xmlns="http://www.w3.org/2000/svg" width="100%" height="100%">
<defs >
<font id="font2" horiz-adv-x="827" ><font-face
    font-family="Apex New Thin"
    units-per-em="2048"
    panose-1="2 1 6 0 4 5 1 1 1 3"
    ascent="1536"
    descent="-512"
    alphabetic="0" />
<missing-glyph horiz-adv-x="1329" d="M825 600H506V1096H825V600ZM666 96Q373 96 102 -20V319Q356 426 666 426Q975 426 1229 319V-20Q958 96 666 96ZM1055 1556Q1138 1556 1193 1501T1249 1362Q1249 1280 1193 1224T1055 1167T917 1223T860 1362Q860 1445 916
1500T1055 1556ZM276 1556Q358 1556 414 1501T471 1362Q471 1280 415 1224T276 1167T138 1223T82 1362Q82 1445 137 1500T276 1556Z" />
<glyph unicode=" " glyph-name="space" horiz-adv-x="409" />
<glyph unicode="!" glyph-name="exclam" horiz-adv-x="368" d="M193 430H176L168 1536H201L193 430ZM154 20Q154 33 163 42T184 51Q197 51 206 42T215 20Q215 8 206 -1T184 -10Q172 -10 163 -1T154 20Z" />
<glyph unicode="&quot;" glyph-name="quotedbl" horiz-adv-x="552" d="M180 1024H168L158 1536H190L180 1024ZM385 1024H373L362 1536H395L385 1024Z" />
<glyph unicode="#" glyph-name="numbersign" horiz-adv-x="1136" d="M563 1280L444 887H838L956 1280H983L864 887H1112L1104 862H858L725 418H1008L999 393H717L600 0H573L690 393H297L180 0H154L270 393H25L33 418H279L412 862H129L137 887H418L537 1280H563ZM438
862L305 418H698L831 862H438Z" />
<glyph unicode="$" glyph-name="dollar" horiz-adv-x="1167" d="M535 145Q1020 145 1020 412Q1020 460 1007 495T969 554T909 593T829 617T731 632T619 643Q600 644 590 645Q369 664 298 681Q174 711 140 789Q123 827 123 881Q123 1027 240 1092T608 1157Q638
1157 702 1153L795 1409H819L725 1151Q899 1139 1016 1100V1079Q940 1100 826 1118T608 1137Q521 1137 454 1130T327 1106T230 1060T169 986T147 881Q147 768 240 724Q309 691 493 677Q504 676 584 670Q638 666 670 663T746 655T815 645T874 632T927 614T968 590T1001
559T1024 520T1039 471T1044 412Q1044 267 922 196T535 125Q489 125 467 127L377 -127H352L444 127Q252 140 129 182V203Q206 181 319 163T535 145Z" />
<glyph unicode="%" glyph-name="percent" horiz-adv-x="2064" d="M1966 367Q1966 169 1879 80T1616 -10Q1441 -10 1354 80T1266 367T1353 653T1616 743Q1792 743 1879 654T1966 367ZM98 913Q98 1111 185 1200T449 1290Q624 1290 711 1200T799 913T712 627T449
537Q273 537 186 626T98 913ZM123 913Q123 721 205 639T449 557T692 639T774 913T692 1187T449 1270T206 1188T123 913ZM1942 367Q1942 559 1860 641T1616 723T1373 641T1290 367Q1290 174 1372 92T1616 10T1860 92T1942 367ZM594 0H565L1470 1280H1499L594 0Z"
/>
<glyph unicode="&amp;" glyph-name="ampersand" horiz-adv-x="1490" d="M492 840L438 815Q495 717 602 588Q791 354 1038 201Q1181 334 1259 544T1337 1024H1362Q1359 750 1280 538T1057 190Q1218 92 1430 8L1421 -10Q1200 78 1040 176Q832 -10 539 -10Q444 -10
364 10T217 75T111 197T72 381Q72 458 90 520T135 625T210 705T301 768T410 823Q297 1025 297 1235Q297 1294 314 1346T366 1445T466 1518T616 1546T766 1520T866 1449T919 1352T936 1241Q936 1197 923 1157T891 1087T838 1028T776 978T704 936T631 901T557 869T492
840ZM96 381Q96 294 124 227T196 119T300 54T418 19T539 10Q820 10 1022 186Q768 347 584 575Q491 686 420 807Q353 775 309 750T221 688T152 610T112 511T96 381ZM428 831L485 858Q508 869 552 888T626 919T696 953T765 993T824 1040T873 1096T903 1161T915 1241Q915
1298 900 1347T851 1436T757 1500T616 1524Q536 1524 477 1500T384 1434T335 1343T319 1235Q319 1024 428 831Z" />
<glyph unicode="&apos;" glyph-name="quotesingle" horiz-adv-x="348" d="M180 1024H168L158 1536H190L180 1024Z" />
<glyph unicode="(" glyph-name="parenleft" horiz-adv-x="471" d="M113 614Q113 791 135 957T195 1252T272 1475T354 1638H383Q340 1570 300 1476T223 1253T162 958T139 614Q139 438 162 271T222 -24T300 -247T383 -410H354Q312 -342 273 -247T196 -24T136 271T113 614Z" />
<glyph unicode=")" glyph-name="parenright" horiz-adv-x="471" d="M358 614Q358 438 336 271T276 -24T199 -247T117 -410H88Q131 -342 171 -247T248 -24T309 271T332 614Q332 791 309 957T249 1252T171 1476T88 1638H117Q159 1570 198 1476T275 1253T335 958T358 614Z" />
<glyph unicode="*" glyph-name="asterisk" horiz-adv-x="745" d="M377 1278H369L354 1536H391L377 1278ZM301 1071L307 1067L166 850L137 872L301 1071ZM438 1067L444 1071L608 872L580 850L438 1067ZM262 1204L260 1198L10 1264L20 1298L262 1204ZM485 1198L483
1204L725 1298L735 1264L485 1198Z" />
<glyph unicode="+" glyph-name="plus" horiz-adv-x="1228" d="M627 289H602V686H205V711H602V1108H627V711H1024V686H627V289Z" />
<glyph unicode="," glyph-name="comma" horiz-adv-x="368" d="M182 41H221L150 -256H133L182 41Z" />
<glyph unicode="-" glyph-name="hyphen" horiz-adv-x="757" d="M635 711V686H123V711H635Z" />
<glyph unicode="." glyph-name="period" horiz-adv-x="368" d="M154 20Q154 33 163 42T184 51Q197 51 206 42T215 20Q215 8 206 -1T184 -10Q172 -10 163 -1T154 20Z" />
<glyph unicode="/" glyph-name="slash" horiz-adv-x="733" d="M27 -410H0L707 1638H733L27 -410Z" />
<glyph unicode="0" glyph-name="zero" horiz-adv-x="1234" d="M1102 641Q1102 470 1079 353T1001 152T851 29T616 -10Q477 -10 383 29T234 151T156 352T133 641Q133 811 156 928T234 1128T383 1251T616 1290Q756 1290 850 1251T1000 1129T1079 928T1102 641ZM1077
641Q1077 807 1054 922T977 1116T835 1233T616 1270Q362 1270 260 1122T158 641Q158 307 260 159T616 10Q871 10 974 158T1077 641Z" />
<glyph unicode="1" glyph-name="one" horiz-adv-x="677" d="M74 1221L406 1290V0H381V1262L74 1198V1221Z" />
<glyph unicode="2" glyph-name="two" horiz-adv-x="1157" d="M971 965Q971 1123 874 1196T543 1270Q451 1270 352 1255T188 1219V1239Q240 1260 344 1275T541 1290Q677 1290 768 1268T908 1201T976 1100T995 965Q995 866 960 801Q916 717 756 564Q664 476 217
77Q186 50 158 25H1036V0H117V20Q197 92 337 216Q694 533 790 630Q919 760 952 846Q971 898 971 965Z" />
<glyph unicode="3" glyph-name="three" horiz-adv-x="1142" d="M465 1270Q385 1270 290 1259T133 1231V1251Q193 1268 294 1279T465 1290Q724 1290 842 1198T961 911Q961 758 883 660T651 545H653Q850 535 933 443T1016 154Q1016 -46 886 -156T481 -266Q392 -266
283 -254T133 -227V-207Q182 -222 285 -234T481 -246Q594 -246 682 -226T827 -170T922 -83T975 27T991 154Q991 267 967 339T885 454T746 513T537 530H330V555H543Q936 555 936 911Q936 994 912 1057T835 1170T688 1244T465 1270Z" />
<glyph unicode="4" glyph-name="four" horiz-adv-x="1228" d="M883 1290V260H1118V236H883V-256H858V236H100V254L864 1290H883ZM133 260H858V1243L133 260Z" />
<glyph unicode="5" glyph-name="five" horiz-adv-x="1144" d="M438 -266Q345 -266 254 -254T115 -223V-201Q162 -218 256 -232T440 -246Q1010 -246 1010 221Q1010 499 823 584Q723 629 521 631Q500 631 449 631L166 627V1280H997V1255H190V649Q391 655 498 655Q566
655 619 652T730 637T830 606T913 554T978 476T1019 367T1034 221Q1034 129 1013 55T957 -70T873 -157T772 -214T658 -247T546 -262T438 -266Z" />
<glyph unicode="6" glyph-name="six" horiz-adv-x="1220" d="M1047 1499V1475Q1006 1492 908 1509T690 1526Q562 1526 467 1490T313 1389T217 1226T168 1014T154 754V539Q192 961 631 961Q717 961 786 946T904 907T987 845T1043 767T1076 675T1092 576T1096 471Q1096
392 1086 328T1045 198T965 89T830 18T631 -10Q338 -10 226 139Q147 244 134 466Q129 542 129 727Q129 862 139 967T173 1168T239 1330T342 1448T491 1522T690 1546Q908 1546 1047 1499ZM166 471Q166 388 176 325T217 200T297 99T432 35T631 10Q737 10 816 34T943
98T1020 200T1060 325T1071 471Q1071 530 1067 577T1052 674T1020 762T967 835T888 892T777 927T631 940Q521 940 436 910T302 832T220 720T177 595T166 471Z" />
<glyph unicode="7" glyph-name="seven" horiz-adv-x="1093" d="M336 -256H305L958 1255H104V1280H991V1264L336 -256Z" />
<glyph unicode="8" glyph-name="eight" horiz-adv-x="1212" d="M481 1546T606 1546T819 1521T960 1445T1035 1327T1059 1165Q1059 1009 987 916T752 795Q943 768 1029 667T1116 397Q1116 198 998 94T606 -10T215 94T96 397Q96 566 182 667T461 795Q298 823 226
916T154 1165Q154 1258 177 1326T252 1445T392 1520ZM469 10T606 10T839 38T990 120T1068 241T1092 397Q1092 467 1078 523T1029 629T940 712T801 765T606 784Q469 784 373 756T222 674T145 553T121 397T144 242T222 121T372 39ZM731 1526T606 1526T395 1499T262
1419T197 1306T178 1165Q178 1102 189 1051T229 953T306 875T430 824T606 805T782 824T905 874T982 953T1023 1051T1034 1165Q1034 1245 1015 1306T950 1419T818 1498Z" />
<glyph unicode="9" glyph-name="nine" horiz-adv-x="1220" d="M174 -219V-195Q215 -212 312 -229T530 -246Q659 -246 753 -210T908 -109T1004 54T1053 266T1067 526V741Q1028 319 590 319Q503 319 434 334T317 373T234 435T178 513T145 605T129 704T125 809Q125
888 135 952T176 1082T256 1191T391 1262T590 1290Q883 1290 995 1141Q1074 1036 1087 814Q1092 738 1092 553Q1092 390 1078 269T1025 43T925 -127T764 -229T530 -266Q313 -266 174 -219ZM1055 809Q1055 892 1045 955T1004 1080T924 1181T789 1245T590 1270Q484
1270 405 1246T277 1182T200 1080T161 955T150 809Q150 750 154 703T169 606T201 518T254 445T333 388T444 353T590 340Q700 340 785 370T919 448T1001 560T1044 685T1055 809Z" />
<glyph unicode=":" glyph-name="colon" horiz-adv-x="368" d="M154 20Q154 33 163 42T184 51Q197 51 206 42T215 20Q215 8 206 -1T184 -10Q172 -10 163 -1T154 20ZM154 756T154 768T163 789T184 799Q197 799 206 790T215 768T206 747T184 737Q172 737 163 746Z" />
<glyph unicode=";" glyph-name="semicolon" horiz-adv-x="368" d="M154 756T154 768T163 789T184 799Q197 799 206 790T215 768T206 747T184 737Q172 737 163 746ZM182 41H221L150 -256H133L182 41Z" />
<glyph unicode="&lt;" glyph-name="less" horiz-adv-x="1228" d="M1014 262V229L215 682V715L1014 1167V1135L240 698L1014 262Z" />
<glyph unicode="=" glyph-name="equal" horiz-adv-x="1228" d="M1024 872V848H205V872H1024ZM1024 549V524H205V549H1024Z" />
<glyph unicode="&gt;" glyph-name="greater" horiz-adv-x="1228" d="M215 1135V1167L1014 715V682L215 229V262L989 698L215 1135Z" />
<glyph unicode="?" glyph-name="question" horiz-adv-x="1024" d="M389 1526Q313 1526 229 1513T102 1487V1507Q134 1520 230 1533T387 1546Q511 1546 601 1526T746 1473T831 1389T874 1286T885 1165Q885 1116 880 1075T861 1002T835 944T796 897T751 860T696
828T637 801T569 774Q495 746 448 716T376 652T343 586T334 510Q334 470 340 430H324Q313 465 313 514Q313 583 332 628T408 715T569 797Q682 841 723 867Q837 940 856 1090Q860 1124 860 1163Q860 1230 849 1281T807 1380T725 1458T589 1507T389 1526ZM324 20Q324
33 333 42T354 51Q367 51 376 42T385 20Q385 8 376 -1T354 -10Q342 -10 333 -1T324 20Z" />
<glyph unicode="@" glyph-name="at" horiz-adv-x="1675" d="M1128 825L1135 922H1153V125H1221Q1328 125 1400 159T1514 262T1572 423T1589 645Q1589 739 1580 811T1550 950T1491 1064T1397 1150T1261 1212T1077 1247T838 1260Q708 1260 602 1240T418 1185T283
1096T187 981T127 841T95 684T86 512Q86 420 95 342T127 186T188 46T286 -70T425 -159T614 -215T858 -236Q1021 -236 1171 -218T1419 -170V-193Q1215 -256 858 -256Q721 -256 609 -236T415 -179T271 -89T170 29T106 172T71 333T61 512Q61 608 71 690T105 852T169
995T269 1112T409 1203T597 1259T838 1280Q995 1280 1114 1264T1319 1212T1462 1127T1553 1003T1600 844T1614 645Q1614 544 1602 463T1570 326T1519 229T1455 163T1378 125T1294 107T1204 102H1135L1128 199Q1048 145 977 119T807 92Q706 92 636 122T525 209T467
340T449 512T466 684T524 815T635 902T807 932Q905 932 976 906T1128 825ZM1128 221V803Q1048 856 975 883T807 911Q726 911 666 889T570 832T511 743T481 635T473 512T481 390T511 282T569 193T666 135T807 113Q901 113 974 140T1128 221Z" />
<glyph unicode="A" glyph-name="A" horiz-adv-x="1208" d="M1157 0H1130L971 453H236L78 0H51L598 1546H610L1157 0ZM604 1505L244 477H963L604 1505Z" />
<glyph unicode="B" glyph-name="B" horiz-adv-x="1169" d="M727 801Q921 799 1009 705T1098 403Q1098 331 1085 274T1038 164T950 76T809 21T608 0H133V1536H612Q736 1536 822 1509T956 1429T1023 1312T1044 1161Q1044 1006 964 910T727 801ZM158 786V25H618Q725
25 806 46T938 101T1019 186T1061 288T1073 403Q1073 620 974 703T627 786H158ZM1018 1161Q1018 1222 1010 1269T975 1363T906 1441T787 1491T610 1511H158V811H627Q1018 811 1018 1161Z" />
<glyph unicode="C" glyph-name="C" horiz-adv-x="1159" d="M102 575T102 768T131 1100T228 1342T410 1495T690 1546Q911 1546 1057 1493V1470Q902 1526 690 1526Q390 1526 259 1342T127 768T258 195T690 10Q902 10 1057 66V43Q911 -10 690 -10Q525 -10 411 40T229
193T132 435Z" />
<glyph unicode="D" glyph-name="D" horiz-adv-x="1257" d="M575 0H133V1536H575Q677 1536 758 1519T900 1469T1005 1385T1078 1273T1124 1130T1148 962T1155 768T1148 574T1124 406T1079 264T1006 152T901 68T759 18T575 0ZM160 1511V25H559Q672 25 758 44T908
106T1013 207T1080 352T1115 537T1126 768T1116 998T1080 1184T1013 1329T908 1430T759 1491T559 1511H160Z" />
<glyph unicode="E" glyph-name="E" horiz-adv-x="1071" d="M891 811V786H160V25H969V0H133V1536H969V1511H160V811H891Z" />
<glyph unicode="F" glyph-name="F" horiz-adv-x="1005" d="M866 811V786H158V0H133V1536H944V1511H158V811H866Z" />
<glyph unicode="G" glyph-name="G" horiz-adv-x="1269" d="M692 10Q811 10 926 28T1112 80V723H768V748H1137V63Q966 -10 692 -10Q526 -10 411 40T229 193T132 435T102 768T131 1100T228 1342T411 1495T692 1546Q936 1546 1092 1481V1456Q919 1526 692 1526Q392
1526 260 1341T127 768T259 195T692 10Z" />
<glyph unicode="H" glyph-name="H" horiz-adv-x="1265" d="M1133 0H1106V786H160V0H133V1536H160V811H1106V1536H1133V0Z" />
<glyph unicode="I" glyph-name="I" horiz-adv-x="380" d="M203 0H178V1536H203V0Z" />
<glyph unicode="J" glyph-name="J" horiz-adv-x="653" d="M51 -4V16Q87 10 141 10Q291 10 370 66T449 258V1536H475V256Q475 121 394 56T141 -10Q108 -10 51 -4Z" />
<glyph unicode="K" glyph-name="K" horiz-adv-x="1075" d="M362 844L152 602V0H133V1536H152V631L940 1536H967L375 858L1044 0H1014L362 844Z" />
<glyph unicode="L" glyph-name="L" horiz-adv-x="962" d="M158 1536V25H922V0H133V1536H158Z" />
<glyph unicode="M" glyph-name="M" horiz-adv-x="1597" d="M805 174H793L158 1466L160 0H133V1536H152L799 219L1446 1536H1464V0H1438L1440 1466L805 174Z" />
<glyph unicode="N" glyph-name="N" horiz-adv-x="1286" d="M1153 0H1143L158 1468L162 0H133V1536H143L1128 68L1124 1536H1153V0Z" />
<glyph unicode="O" glyph-name="O" horiz-adv-x="1314" d="M1212 862T1212 768T1208 600T1194 450T1165 317T1117 205T1046 113T949 47T821 4T657 -10Q555 -10 475 9T336 61T236 149T169 265T128 410T108 577T102 768T107 959T128 1126T168 1271T236 1386T336
1474T474 1527T657 1546Q747 1546 820 1532T949 1490T1046 1424T1117 1332T1164 1220T1193 1086T1208 936ZM1188 657T1188 768T1183 964T1162 1131T1122 1271T1056 1380T961 1461T829 1509T657 1526T486 1509T355 1462T259 1381T194 1272T153 1131T133 964T127
768T132 572T153 405T193 265T259 156T354 75T485 27T657 10T829 27T960 74T1056 155T1121 264T1162 405T1182 572Z" />
<glyph unicode="P" glyph-name="P" horiz-adv-x="1126" d="M158 668V0H133V1536H612Q719 1536 800 1512T930 1449T1011 1351T1053 1233T1065 1100T1054 967T1011 850T931 754T800 692T612 668H158ZM158 1511V690H614Q691 690 753 703T860 738T936 792T988 859T1020
936T1036 1017T1040 1100Q1040 1145 1036 1183T1020 1265T989 1342T937 1409T860 1463T754 1498T614 1511H158Z" />
<glyph unicode="Q" glyph-name="Q" horiz-adv-x="1314" d="M1212 862T1212 768T1208 600T1194 450T1165 317T1117 205T1046 113T949 47T821 4T657 -10Q623 -10 608 -8V-10L1421 -217V-244L473 6Q403 25 348 55T254 123T188 215T144 324T118 454T105 601T102 768Q102
876 107 959T128 1126T168 1271T236 1386T336 1474T474 1527T657 1546Q747 1546 820 1532T949 1490T1046 1424T1117 1332T1164 1220T1193 1086T1208 936ZM1188 657T1188 768T1183 964T1162 1131T1122 1271T1056 1380T961 1461T829 1509T657 1526T486 1509T355 1462T259
1381T194 1272T153 1131T133 964T127 768Q127 637 135 540T165 354T225 204T321 98T462 31T657 10Q753 10 829 27T960 74T1056 155T1121 264T1162 405T1182 572Z" />
<glyph unicode="R" glyph-name="R" horiz-adv-x="1167" d="M160 727V0H133V1536H621Q732 1536 812 1518T941 1469T1019 1385T1058 1274T1069 1133Q1069 1039 1055 974T1004 855T898 771T723 731L1116 0H1085L696 729Q672 727 621 727H160ZM160 752H641Q744 752
818 772T934 823T1002 906T1034 1010T1042 1133T1035 1255T1002 1358T934 1440T818 1491T641 1511H160V752Z" />
<glyph unicode="S" glyph-name="S" horiz-adv-x="1155" d="M631 1546Q842 1546 997 1485V1460Q829 1524 631 1524Q521 1524 437 1505T301 1454T215 1375T169 1275T156 1157Q156 1080 171 1026T217 935T304 873T430 834T606 809Q740 796 820 775T959 710T1040 596T1063
414Q1063 348 1048 290T993 176T891 79T729 15T498 -10Q397 -10 281 11T98 59V84Q169 54 277 33T500 12Q645 12 751 42T919 129T1009 256T1038 414Q1038 493 1026 548T984 646T903 717T775 763T590 791Q459 803 378 824T238 886T157 993T133 1159Q133 1225 146
1279T193 1384T281 1469T425 1525T631 1546Z" />
<glyph unicode="T" glyph-name="T" horiz-adv-x="1044" d="M1014 1511H535V0H510V1511H31V1536H1014V1511Z" />
<glyph unicode="U" glyph-name="U" horiz-adv-x="1286" d="M518 10T643 10T856 33T1011 110T1109 261T1141 498V1536H1163V489Q1163 367 1136 277T1064 133T950 46T809 2T643 -10T478 1T336 46T222 133T150 277T123 489V1536H145V498Q145 357 177 261T275 111T429 33Z" />
<glyph unicode="V" glyph-name="V" horiz-adv-x="1208" d="M1130 1536H1157L610 -10H598L51 1536H78L604 31L1130 1536Z" />
<glyph unicode="W" glyph-name="W" horiz-adv-x="1622" d="M799 1536H823L1219 31L1554 1536H1581L1229 -10H1208L811 1499L414 -10H393L41 1536H68L403 31L799 1536Z" />
<glyph unicode="X" glyph-name="X" horiz-adv-x="1110" d="M1051 0L555 758L59 0H31L543 776L43 1536H72L555 795L1038 1536H1067L567 776L1079 0H1051Z" />
<glyph unicode="Y" glyph-name="Y" horiz-adv-x="1200" d="M1159 1536L612 627V0H588V627L41 1536H70L600 647L1130 1536H1159Z" />
<glyph unicode="Z" glyph-name="Z" horiz-adv-x="1146" d="M1096 0H51V18L1032 1511H96V1536H1065V1518L84 25H1096V0Z" />
<glyph unicode="[" glyph-name="bracketleft" horiz-adv-x="471" d="M440 -410H178V1638H440V1614H203V-385H440V-410Z" />
<glyph unicode="\" glyph-name="backslash" horiz-adv-x="733" d="M733 -410H707L0 1638H27L733 -410Z" />
<glyph unicode="]" glyph-name="bracketright" horiz-adv-x="471" d="M293 -410H31V-385H268V1614H31V1638H293V-410Z" />
<glyph unicode="^" glyph-name="asciicircum" horiz-adv-x="1044" d="M932 1024H909L543 1507L176 1024H154L535 1536H551L932 1024Z" />
<glyph unicode="_" glyph-name="underscore" horiz-adv-x="552" d="M584 -487V-512H-31V-487H584Z" />
<glyph unicode="`" glyph-name="grave" horiz-adv-x="1126" d="M573 1126H553L420 1536H446L573 1126Z" />
<glyph unicode="a" glyph-name="a" horiz-adv-x="983" d="M485 1014Q336 1014 188 971V991Q247 1010 333 1022T485 1034Q599 1034 672 1015T783 952T836 853T850 713V0H831L825 96Q761 51 657 21T455 -10Q271 -10 187 71T102 285Q102 368 123 424T190 516T298
570T453 596L825 627V717Q825 827 797 889T695 982T485 1014ZM825 606L442 573Q385 568 342 559T257 530T187 479T144 399T127 285Q127 231 142 186T193 99T296 34T459 10Q660 10 825 119V606Z" />
<glyph unicode="b" glyph-name="b" horiz-adv-x="1083" d="M168 1536V928Q326 1034 551 1034Q649 1034 723 1007T844 935T920 821T960 679T971 512T960 346T920 203T845 90T724 17T551 -10Q326 -10 168 96L162 0H143V1536H168ZM168 905V119Q328 10 551 10Q649
10 721 39T836 114T904 228T937 363T946 512T938 661T904 795T837 910T722 985T551 1014Q328 1014 168 905Z" />
<glyph unicode="c" glyph-name="c" horiz-adv-x="911" d="M113 417T113 512T124 682T164 825T239 937T360 1008T532 1034Q685 1034 809 995V975Q657 1014 532 1014Q436 1014 364 986T250 913T181 801T146 665T137 512T146 359T181 224T249 111T364 38T532 10Q591
10 647 17T730 30T809 49V29Q678 -10 532 -10Q434 -10 360 16T240 86T164 198T124 341Z" />
<glyph unicode="d" glyph-name="d" horiz-adv-x="1083" d="M915 928V1536H940V0H922L915 96Q757 -10 532 -10Q434 -10 360 17T240 89T164 203T124 345T113 512T124 678T164 821T239 934T360 1007T532 1034Q757 1034 915 928ZM915 119V905Q755 1014 532 1014Q434
1014 362 985T247 910T180 796T146 661T137 512T145 363T179 229T247 114T361 39T532 10Q755 10 915 119Z" />
<glyph unicode="e" glyph-name="e" horiz-adv-x="1017" d="M532 10Q676 10 852 61V41Q697 -10 532 -10Q410 -10 326 27T197 138T132 300T113 512T132 723T196 886T326 996T532 1034Q628 1034 697 1008T806 938T868 825T898 683T905 512V502H137Q138 414 147 347T183
214T251 105T365 36T532 10ZM137 522H881Q881 584 879 630T868 730T846 823T805 900T742 962T653 999T532 1014Q436 1014 365 988T252 919T183 811T148 678T137 522Z" />
<glyph unicode="f" glyph-name="f" horiz-adv-x="757" d="M72 1020L260 1024V1266Q260 1408 345 1477T610 1546Q669 1546 727 1538V1516Q669 1524 610 1524Q456 1524 371 1464T285 1264V1024H676V1001H285V0H260V1001H72V1020Z" />
<glyph unicode="g" glyph-name="g" horiz-adv-x="956" d="M104 698Q104 858 187 946T461 1034Q520 1034 573 1024H911V1001L645 1004Q817 932 817 698Q817 621 799 562T740 456T630 386T461 362Q342 362 264 397Q212 370 183 338T154 252Q154 189 187 162T279
127L709 70Q845 52 908 -3T971 -180Q971 -342 824 -432T440 -522Q-8 -522 -8 -223Q-8 -95 67 -12T279 106Q131 124 131 252Q131 346 242 410Q104 485 104 698ZM16 -223Q16 -502 440 -502Q581 -502 693 -468T875 -360T946 -180Q946 -69 889 -19T702 49L317 100Q278
91 244 79T165 40T90 -19T38 -105T16 -223ZM129 765T129 698T143 579T192 481T295 409T461 383Q540 383 599 400T695 446T754 517T785 602T793 698T785 794T755 880T696 950T600 996T461 1014Q363 1014 295 989T192 917T143 818Z" />
<glyph unicode="h" glyph-name="h" horiz-adv-x="1042" d="M168 0H143V1536H168V928Q331 1034 571 1034Q754 1034 831 972T909 760V0H885V764Q885 838 864 887T801 964T703 1003T571 1014Q449 1014 343 982T168 905V0Z" />
<glyph unicode="i" glyph-name="i" horiz-adv-x="417" d="M285 10V-10Q215 -10 189 12T162 90V1024H186V84Q186 44 208 27T285 10ZM143 1331Q143 1344 152 1353T174 1362T195 1353T205 1331Q205 1319 196 1310T174 1300T153 1309T143 1331Z" />
<glyph unicode="j" glyph-name="j" horiz-adv-x="370" d="M209 1024V-260Q209 -385 126 -453T-106 -522V-500Q24 -500 104 -441T184 -254V1024H209ZM166 1331Q166 1344 175 1353T197 1362Q209 1362 218 1353T227 1331Q227 1319 218 1310T197 1300Q184 1300 175
1309T166 1331Z" />
<glyph unicode="k" glyph-name="k" horiz-adv-x="911" d="M809 1024L379 606L881 0H850L360 590L168 403V0H143V1536H168V434L774 1024H809Z" />
<glyph unicode="l" glyph-name="l" horiz-adv-x="417" d="M285 10V-10Q215 -10 189 12T162 90V1536H186V84Q186 44 208 27T285 10Z" />
<glyph unicode="m" glyph-name="m" horiz-adv-x="1701" d="M158 0H133V1024H152L158 928Q316 1034 541 1034Q667 1034 738 1005T840 911Q1018 1034 1251 1034Q1432 1034 1505 973T1579 760V0H1554V766Q1554 912 1482 964T1251 1016Q1037 1016 848 895Q868 842
868 760V0H844V766Q844 842 825 891T764 968T671 1005T541 1016Q321 1016 158 905V0Z" />
<glyph unicode="n" glyph-name="n" horiz-adv-x="1021" d="M158 0H133V1024H152L158 928Q321 1034 561 1034Q744 1034 821 972T899 760V0H874V764Q874 907 797 960T561 1014Q439 1014 333 982T158 905V0Z" />
<glyph unicode="o" glyph-name="o" horiz-adv-x="1064" d="M630 -10T532 -10T360 17T240 89T164 203T124 345T113 512T124 678T164 821T239 934T360 1007T532 1034T704 1007T825 935T901 821T941 679T952 512T941 346T901 203T826 90T705 17ZM630 1014T532 1014T362
985T247 910T180 796T146 661T137 512T145 363T179 229T247 114T361 39T532 10T702 39T817 114T885 228T919 363T928 512T920 661T886 795T818 910T703 985Z" />
<glyph unicode="p" glyph-name="p" horiz-adv-x="1083" d="M168 -512H143V1024H162L168 928Q326 1034 551 1034Q649 1034 723 1007T844 935T920 821T960 679T971 512T960 346T920 203T845 90T724 17T551 -10Q326 -10 168 96V-512ZM168 905V119Q328 10 551 10Q649
10 721 39T836 114T904 228T937 363T946 512T938 661T904 795T837 910T722 985T551 1014Q328 1014 168 905Z" />
<glyph unicode="q" glyph-name="q" horiz-adv-x="1083" d="M940 -512H915V96Q757 -10 532 -10Q434 -10 360 17T240 89T164 203T124 345T113 512T124 678T164 821T239 934T360 1007T532 1034Q757 1034 915 928L922 1024H940V-512ZM915 119V905Q755 1014 532 1014Q434
1014 362 985T247 910T180 796T146 661T137 512T145 363T179 229T247 114T361 39T532 10Q755 10 915 119Z" />
<glyph unicode="r" glyph-name="r" horiz-adv-x="696" d="M645 1030V1010Q613 1014 561 1014Q439 1014 333 982T158 905V0H133V1024H152L158 928Q321 1034 561 1034Q621 1034 645 1030Z" />
<glyph unicode="s" glyph-name="s" horiz-adv-x="892" d="M393 12Q497 12 572 32T688 89T747 169T766 266Q766 387 698 445T459 520Q326 533 254 563T155 640T127 768Q127 1034 492 1034Q635 1034 768 989V967Q716 982 690 988T607 1003T492 1012Q152 1012 152
768Q152 709 167 671T221 606T315 566T459 543Q645 523 718 461T791 268Q791 211 772 164T709 76T585 13T393 -10Q249 -10 119 35V57Q171 42 196 36T278 21T393 12Z" />
<glyph unicode="t" glyph-name="t" horiz-adv-x="757" d="M72 1020L260 1024V1350L285 1356V1024H676V1001H285V272Q285 132 370 72T610 12H621V-10H610Q430 -10 345 59T260 270V1001H72V1020Z" />
<glyph unicode="u" glyph-name="u" horiz-adv-x="1021" d="M461 10Q583 10 689 42T864 119V1024H889V0H870L864 96Q701 -10 461 -10Q278 -10 201 52T123 264V1024H147V260Q147 186 168 137T231 60T329 21T461 10Z" />
<glyph unicode="v" glyph-name="v" horiz-adv-x="921" d="M465 -10H457L41 1024H68L461 37L854 1024H881L465 -10Z" />
<glyph unicode="w" glyph-name="w" horiz-adv-x="1343" d="M659 1024H684L1010 29L1276 1024H1303L1022 -10H999L672 987L344 -10H322L41 1024H68L334 29L659 1024Z" />
<glyph unicode="x" glyph-name="x" horiz-adv-x="872" d="M436 510L61 0H31L422 528L55 1024H86L436 547L786 1024H817L451 528L842 0H811L436 510Z" />
<glyph unicode="y" glyph-name="y" horiz-adv-x="921" d="M41 1024H68L461 37L854 1024H881L264 -512H236L451 6L41 1024Z" />
<glyph unicode="z" glyph-name="z" horiz-adv-x="860" d="M799 0H61V16L741 999H94V1024H778V1008L98 25H799V0Z" />
<glyph unicode="{" glyph-name="braceleft" horiz-adv-x="471" d="M143 614Q199 605 228 570T254 446L213 -236Q209 -314 248 -349T375 -385H389V-410H375Q277 -410 228 -371T184 -233L225 446Q229 532 195 567T76 602H61V627H76Q161 627 195 662T225 782L184
1462Q178 1561 227 1599T375 1638H389V1614H375Q287 1614 248 1578T213 1464L254 782Q258 694 229 659T143 614Z" />
<glyph unicode="|" glyph-name="bar" horiz-adv-x="442" d="M233 -410H209V1638H233V-410Z" />
<glyph unicode="}" glyph-name="braceright" horiz-adv-x="471" d="M328 614Q271 624 242 659T217 782L258 1464Q262 1542 223 1578T96 1614H82V1638H96Q194 1638 243 1600T287 1462L246 782Q242 697 276 662T395 627H410V602H395Q310 602 276 567T246 446L287
-233Q293 -332 244 -371T96 -410H82V-385H96Q184 -385 223 -350T258 -236L217 446Q213 535 242 570T328 614Z" />
<glyph unicode="~" glyph-name="asciitilde" horiz-adv-x="1003" d="M702 635Q773 635 830 659T911 711V682Q882 654 827 632T707 610T586 634T496 686T411 738T301 762Q231 762 175 738T92 686V715Q122 743 177 764T297 786Q351 786 396 771T475 733T539 688T612
651T702 635Z" />
</font>
</defs>
</svg>
